<svg width="959" height="196" viewBox="0 0 959 196" fill="none" xmlns="http://www.w3.org/2000/svg">
<g clip-path="url(#clip0_420_111)">
<path fill-rule="evenodd" clip-rule="evenodd" d="M165 77.9927H206V142.993H236V126.493L258.5 111.993L281 126.493V156.993L336 176.493V143.993H391V77.9927H432V125.993H464V111.493L485 97.9927L506 111.493V148.993H552V118.993L597 126.493V77.9927H638V148.993H693V129.993H738V77.9927H779V115.993H824V152.993H869V136.493L883.5 129.993L898 136.493V157.993H959V209.993H898V210.493H869V209.993H824H779H738H693H638H597V210.493H552V209.993H506V210.493H464V209.993H432H391H336V210.493H281H236V209.993H206H165H110H86H55H0V175.993H55V157.993H86V118.993H110V132.993H165V77.9927Z" fill="#474747"/>
</g>
<defs>
<clipPath id="clip0_420_111">
<rect width="959" height="196" fill="white"/>
</clipPath>
</defs>
</svg>
