<svg width="400" height="64" viewBox="0 0 400 64" fill="none" xmlns="http://www.w3.org/2000/svg">
<g clip-path="url(#clip0_374_145)">
<rect x="0.0634766" y="52" width="12" height="12" rx="1" fill="#0885CD"/>
<rect x="14.0635" y="52" width="12" height="12" rx="1" fill="#0885CD"/>
<rect x="28.0635" y="52" width="12" height="12" rx="1" fill="#0885CD"/>
<rect x="56.0635" y="52" width="12" height="12" rx="1" fill="#0885CD"/>
<rect x="70.0635" y="52" width="12" height="12" rx="1" fill="#0885CD"/>
<rect x="84.0635" y="52" width="12" height="12" rx="1" fill="#0885CD"/>
<rect x="98.0635" y="52" width="12" height="12" rx="1" fill="#0885CD"/>
<rect x="126.063" y="52" width="12" height="12" rx="1" fill="#0885CD"/>
<rect x="140.063" y="52" width="12" height="12" rx="1" fill="#0885CD"/>
<rect x="154.063" y="52" width="12" height="12" rx="1" fill="#0885CD"/>
<rect x="168.063" y="52" width="12" height="12" rx="1" fill="#0885CD"/>
<rect x="182.063" y="52" width="12" height="12" rx="1" fill="#0885CD"/>
<rect x="196.063" y="52" width="12" height="12" rx="1" fill="#0885CD"/>
<rect x="210.063" y="52" width="12" height="12" rx="1" fill="#0885CD"/>
<rect x="238.063" y="52" width="12" height="12" rx="1" fill="#0885CD"/>
<rect x="252.063" y="52" width="12" height="12" rx="1" fill="#0885CD"/>
<rect x="266.063" y="52" width="12" height="12" rx="1" fill="#0885CD"/>
<rect x="280.063" y="52" width="12" height="12" rx="1" fill="#0885CD"/>
<rect x="308.063" y="52" width="12" height="12" rx="1" fill="#0885CD"/>
<rect x="322.063" y="52" width="12" height="12" rx="1" fill="#0885CD"/>
<rect x="350.063" y="52" width="12" height="12" rx="1" fill="#0885CD"/>
<rect x="364.063" y="52" width="12" height="12" rx="1" fill="#0885CD"/>
<rect x="378.063" y="52" width="12" height="12" rx="1" fill="#0885CD"/>
<rect x="392.063" y="52" width="12" height="12" rx="1" fill="#0885CD"/>
</g>
<defs>
<clipPath id="clip0_374_145">
<rect width="400" height="64" fill="white"/>
</clipPath>
</defs>
</svg>
