<svg width="280" height="280" viewBox="0 0 280 280" fill="none" xmlns="http://www.w3.org/2000/svg">
<g clip-path="url(#clip0_33_32)">
<path fill-rule="evenodd" clip-rule="evenodd" d="M140 280C217.32 280 280 217.32 280 140C280 62.6801 217.32 0 140 0C62.6801 0 0 62.6801 0 140C0 217.32 62.6801 280 140 280ZM140.333 233.667C191.88 233.667 233.667 191.88 233.667 140.333C233.667 88.7868 191.88 47 140.333 47C88.7868 47 47 88.7868 47 140.333C47 191.88 88.7868 233.667 140.333 233.667Z" fill="#FFA347"/>
<path fill-rule="evenodd" clip-rule="evenodd" d="M140.333 233.667C191.88 233.667 233.667 191.88 233.667 140.333C233.667 88.7868 191.88 47 140.333 47C88.7868 47 47 88.7868 47 140.333C47 191.88 88.7868 233.667 140.333 233.667ZM139.667 186.333C165.44 186.333 186.333 165.44 186.333 139.667C186.333 113.893 165.44 93 139.667 93C113.893 93 93 113.893 93 139.667C93 165.44 113.893 186.333 139.667 186.333Z" fill="#FFDA47"/>
<circle cx="139.667" cy="139.667" r="46.6667" fill="#F2F2F2"/>
</g>
<defs>
<clipPath id="clip0_33_32">
<rect width="280" height="280" fill="white"/>
</clipPath>
</defs>
</svg>
