<svg width="400" height="64" viewBox="0 0 400 64" fill="none" xmlns="http://www.w3.org/2000/svg">
<g clip-path="url(#clip0_389_79)">
<path d="M359.966 38.1346C359.966 38.1346 359.261 39.9582 358.347 42.5459C358.068 43.3348 359.614 42.5856 359.31 43.4864C359.029 44.3215 356.795 47.8503 356.515 48.7321C356.222 49.6546 358.082 47.9988 357.816 48.9189C356.456 53.6194 352.934 58.388 354.315 58.6536C357.418 59.2502 366.887 60.8096 365.933 56.8713C365.583 55.4281 363.42 51.4672 362.701 48.1532C362.599 47.6835 364.067 48.0284 363.96 47.556C363.606 45.9915 362.036 43.4513 361.644 42.0645C361.487 41.51 362.52 41.9682 362.36 41.4778C361.566 39.048 360.738 37.5247 359.966 38.1346Z" fill="#505C3B"/>
<path d="M359.003 63.9003L360.446 46.1049C360.446 46.1049 361.586 63.4268 361.42 63.9003C361.219 64.4707 359.406 64.6912 359.003 63.9003Z" fill="#505C3B"/>
<path d="M215.643 35.1499C215.643 35.1499 214.859 37.1806 213.841 40.0622C213.53 40.9406 215.252 40.1064 214.913 41.1095C214.6 42.0395 212.113 45.9691 211.801 46.951C211.474 47.9783 213.545 46.1344 213.249 47.159C211.735 52.3934 207.813 57.7036 209.351 57.9993C212.807 58.6637 223.351 60.4002 222.288 56.0146C221.898 54.4075 219.49 49.9968 218.689 46.3064C218.576 45.7833 220.21 46.1674 220.091 45.6414C219.698 43.8991 217.949 41.0704 217.512 39.5261C217.338 38.9087 218.488 39.4189 218.309 38.8728C217.426 36.167 216.504 34.4707 215.643 35.1499Z" fill="#505C3B"/>
<path d="M214.571 63.842L216.178 44.0255C216.178 44.0255 217.448 63.3147 217.262 63.842C217.039 64.4771 215.019 64.7227 214.571 63.842Z" fill="#505C3B"/>
<path d="M75.4517 28.1907C75.4517 28.1907 74.4536 30.7741 73.158 34.44C72.763 35.5576 74.9536 34.4962 74.523 35.7724C74.1241 36.9554 70.9597 41.9546 70.563 43.2037C70.148 44.5107 72.7822 42.1649 72.4053 43.4684C70.4796 50.1274 65.4899 56.883 67.4469 57.2592C71.8425 58.1044 85.2571 60.3136 83.9047 54.7343C83.409 52.6897 80.3451 47.0786 79.3266 42.3837C79.1821 41.7183 81.2614 42.2069 81.1102 41.5377C80.6091 39.3213 78.3842 35.7226 77.8287 33.758C77.6068 32.9725 79.0702 33.6217 78.8431 32.9269C77.7192 29.4847 76.5461 27.3267 75.4517 28.1907Z" fill="#505C3B"/>
<path d="M74.0874 64.6921L76.1311 39.482C76.1311 39.482 77.7468 64.0213 77.5112 64.6921C77.227 65.5002 74.6578 65.8126 74.0874 64.6921Z" fill="#505C3B"/>
<path d="M283.391 43.1544C283.391 43.1544 276.943 57.9668 279.674 58.492C282.406 59.0172 290.18 59.4375 289.339 55.9707C288.499 52.5041 285.387 41.5786 283.391 43.1544Z" fill="#505C3B"/>
<path d="M282.957 63.4425C282.957 63.4425 283.641 47.7505 284.227 47.4878C284.843 47.2119 285.873 63.5143 285.515 63.7856C284.928 64.2305 283.312 64.1516 282.957 63.4425Z" fill="#505C3B"/>
<path d="M284.065 56.9818C284.065 56.9818 281.384 53.6995 281.756 53.5544C282.012 53.4542 284.065 55.3863 284.065 55.3863V56.9818Z" fill="#505C3B"/>
<path d="M284.349 53.5545C284.349 53.5545 287 50.2802 286.648 50.1666C286.241 50.0354 284.402 52.3202 284.402 52.3202L284.349 53.5545Z" fill="#505C3B"/>
<path d="M285.938 51.4815C285.938 51.4815 286.727 51.9526 286.897 51.9131C287.068 51.8737 286.218 50.9643 286.218 50.9643L285.938 51.4815Z" fill="#505C3B"/>
<path d="M282.446 54.2243C282.446 54.2243 282.052 51.5258 282.275 51.6013C282.498 51.6768 283.076 54.5887 283.076 54.5887L282.446 54.2243Z" fill="#505C3B"/>
<path d="M282.451 52.7666C282.451 52.7666 281.172 52.3595 281.343 52.2938C281.513 52.2282 282.318 52.1953 282.318 52.1953L282.451 52.7666Z" fill="#505C3B"/>
<path d="M170.066 41.1781C170.066 41.1781 162.627 58.2657 165.778 58.8715C168.929 59.4774 177.897 59.9623 176.927 55.963C175.958 51.9639 172.368 39.3603 170.066 41.1781Z" fill="#505C3B"/>
<path d="M169.565 64.5824C169.565 64.5824 170.354 46.4801 171.03 46.1771C171.741 45.8589 172.928 64.6652 172.515 64.9783C171.838 65.4914 169.974 65.4005 169.565 64.5824Z" fill="#505C3B"/>
<path d="M170.843 57.1294C170.843 57.1294 167.751 53.3429 168.179 53.1756C168.475 53.0599 170.843 55.2889 170.843 55.2889V57.1294Z" fill="#505C3B"/>
<path d="M171.171 53.1757C171.171 53.1757 174.228 49.3984 173.822 49.2674C173.353 49.116 171.232 51.7518 171.232 51.7518L171.171 53.1757Z" fill="#505C3B"/>
<path d="M173.004 50.7843C173.004 50.7843 173.913 51.3277 174.11 51.2822C174.307 51.2367 173.326 50.1877 173.326 50.1877L173.004 50.7843Z" fill="#505C3B"/>
<path d="M168.975 53.9483C168.975 53.9483 168.52 50.8354 168.778 50.9225C169.036 51.0096 169.702 54.3688 169.702 54.3688L168.975 53.9483Z" fill="#505C3B"/>
<path d="M168.981 52.2667C168.981 52.2667 167.505 51.7971 167.702 51.7213C167.899 51.6456 168.827 51.6077 168.827 51.6077L168.981 52.2667Z" fill="#505C3B"/>
<path d="M101.391 43.1544C101.391 43.1544 94.943 57.9668 97.6743 58.492C100.406 59.0172 108.18 59.4375 107.339 55.9707C106.499 52.5041 103.387 41.5786 101.391 43.1544Z" fill="#505C3B"/>
<path d="M100.957 63.4425C100.957 63.4425 101.641 47.7505 102.227 47.4878C102.843 47.2119 103.873 63.5143 103.515 63.7856C102.928 64.2305 101.312 64.1516 100.957 63.4425Z" fill="#505C3B"/>
<path d="M102.065 56.9818C102.065 56.9818 99.3845 53.6995 99.7557 53.5544C100.012 53.4542 102.065 55.3863 102.065 55.3863V56.9818Z" fill="#505C3B"/>
<path d="M102.349 53.5545C102.349 53.5545 105 50.2802 104.648 50.1666C104.241 50.0354 102.402 52.3202 102.402 52.3202L102.349 53.5545Z" fill="#505C3B"/>
<path d="M103.938 51.4815C103.938 51.4815 104.727 51.9526 104.897 51.9131C105.068 51.8737 104.218 50.9643 104.218 50.9643L103.938 51.4815Z" fill="#505C3B"/>
<path d="M100.446 54.2243C100.446 54.2243 100.052 51.5258 100.275 51.6013C100.498 51.6768 101.076 54.5887 101.076 54.5887L100.446 54.2243Z" fill="#505C3B"/>
<path d="M100.451 52.7666C100.451 52.7666 99.1719 52.3595 99.3426 52.2938C99.5133 52.2282 100.318 52.1953 100.318 52.1953L100.451 52.7666Z" fill="#505C3B"/>
<path d="M24.4878 39.9332C24.4878 39.9332 16.4293 58.4448 19.8427 59.1011C23.2561 59.7574 32.9714 60.2827 31.921 55.9502C30.871 51.6178 26.9822 37.9639 24.4878 39.9332Z" fill="#505C3B"/>
<path d="M23.9456 65.2879C23.9456 65.2879 24.7997 45.6771 25.5327 45.3488C26.3023 45.0041 27.589 65.3776 27.1416 65.7168C26.4079 66.2727 24.3885 66.1742 23.9456 65.2879Z" fill="#505C3B"/>
<path d="M25.3304 57.2138C25.3304 57.2138 21.98 53.1118 22.444 52.9305C22.7649 52.8052 25.3304 55.2199 25.3304 55.2199V57.2138Z" fill="#505C3B"/>
<path d="M25.6851 52.9306C25.6851 52.9306 28.9977 48.8386 28.5576 48.6966C28.0491 48.5327 25.7513 51.3881 25.7513 51.3881L25.6851 52.9306Z" fill="#505C3B"/>
<path d="M27.6711 50.3399C27.6711 50.3399 28.6561 50.9286 28.8694 50.8793C29.0828 50.8301 28.0203 49.6935 28.0203 49.6935L27.6711 50.3399Z" fill="#505C3B"/>
<path d="M23.3063 53.7676C23.3063 53.7676 22.8139 50.3953 23.0929 50.4896C23.3719 50.5839 24.094 54.2231 24.094 54.2231L23.3063 53.7676Z" fill="#505C3B"/>
<path d="M23.3124 51.9459C23.3124 51.9459 21.7142 51.4372 21.9276 51.355C22.1409 51.273 23.1461 51.232 23.1461 51.232L23.3124 51.9459Z" fill="#505C3B"/>
<path d="M376.723 52.0957C376.723 52.0957 372.724 61.2818 374.418 61.6075C376.112 61.9332 380.933 62.1938 380.412 60.0439C379.891 57.894 377.961 51.1185 376.723 52.0957Z" fill="#505C3B"/>
<path d="M376.454 64.6776C376.454 64.6776 376.878 54.946 377.242 54.7832C377.624 54.6121 378.262 64.7221 378.04 64.8904C377.676 65.1662 376.674 65.1174 376.454 64.6776Z" fill="#505C3B"/>
<path d="M377.141 60.6709C377.141 60.6709 375.479 58.6354 375.709 58.5454C375.868 58.4832 377.141 59.6815 377.141 59.6815V60.6709Z" fill="#505C3B"/>
<path d="M377.317 58.5455C377.317 58.5455 378.961 56.5149 378.743 56.4444C378.49 56.3631 377.35 57.78 377.35 57.78L377.317 58.5455Z" fill="#505C3B"/>
<path d="M378.303 57.2599C378.303 57.2599 378.792 57.552 378.898 57.5276C379.003 57.5031 378.476 56.9391 378.476 56.9391L378.303 57.2599Z" fill="#505C3B"/>
<path d="M376.137 58.9608C376.137 58.9608 375.893 57.2874 376.031 57.3342C376.169 57.381 376.528 59.1869 376.528 59.1869L376.137 58.9608Z" fill="#505C3B"/>
<path d="M376.14 58.0568C376.14 58.0568 375.347 57.8044 375.453 57.7636C375.559 57.7229 376.058 57.7025 376.058 57.7025L376.14 58.0568Z" fill="#505C3B"/>
<path d="M298.272 54.6318C298.272 54.6318 299.56 51.8958 301.793 54.0811C302.378 51.4695 302.183 49.7566 303.892 50.0282C303.892 50.0282 305.126 50.1932 306.043 54.3611C306.929 53.3527 309.695 53.8237 308.837 55.7377C308.837 55.7377 306.41 60.6099 305.427 61.355C304.477 62.0754 303.402 62.0891 302.55 60.9767C300.978 58.9248 296.918 56.589 298.272 54.6318Z" fill="#505C3B"/>
<path d="M304.678 64.6753C304.678 64.6753 304.442 53.8237 303.814 53.8237C303.307 53.8237 303.131 64.3867 303.231 64.6753C303.351 65.0232 304.437 65.1578 304.678 64.6753Z" fill="#505C3B"/>
<path d="M303.924 60.2812C303.924 60.2812 307.105 56.4285 306.922 56.2588C306.392 55.7668 303.924 59.1961 303.924 59.1961V60.2812Z" fill="#505C3B"/>
<path d="M303.642 58.6773C303.642 58.6773 300.235 55.1761 300.353 54.9228C300.515 54.5724 303.688 57.792 303.688 57.792L303.642 58.6773Z" fill="#505C3B"/>
<path d="M136.494 46.4213C136.494 46.4213 138.836 41.4469 142.897 45.42C143.96 40.6717 143.606 37.5575 146.712 38.0514C146.712 38.0514 148.956 38.3512 150.623 45.9292C152.235 44.0957 157.264 44.9522 155.703 48.4321C155.703 48.4321 151.29 57.2905 149.503 58.6453C147.776 59.955 145.822 59.9799 144.273 57.9574C141.416 54.2267 134.034 49.9799 136.494 46.4213Z" fill="#505C3B"/>
<path d="M148.142 64.6822C148.142 64.6822 147.713 44.9522 146.571 44.9522C145.649 44.9522 145.33 64.1573 145.511 64.6822C145.729 65.3146 147.703 65.5593 148.142 64.6822Z" fill="#505C3B"/>
<path d="M146.772 56.6928C146.772 56.6928 152.554 49.688 152.222 49.3795C151.258 48.485 146.772 54.72 146.772 54.72V56.6928Z" fill="#505C3B"/>
<path d="M146.258 53.7768C146.258 53.7768 140.064 47.411 140.278 46.9504C140.574 46.3133 146.343 52.1672 146.343 52.1672L146.258 53.7768Z" fill="#505C3B"/>
<path d="M231.296 53.6902C231.296 53.6902 232.701 50.7056 235.138 53.0895C235.776 50.2404 235.564 48.3719 237.427 48.6682C237.427 48.6682 238.774 48.8481 239.774 53.3949C240.741 52.2949 243.759 52.8087 242.822 54.8967C242.822 54.8967 240.174 60.2118 239.102 61.0247C238.066 61.8105 236.893 61.8255 235.964 60.6119C234.249 58.3735 229.82 55.8254 231.296 53.6902Z" fill="#505C3B"/>
<path d="M238.285 64.6468C238.285 64.6468 238.028 52.8087 237.343 52.8087C236.789 52.8087 236.598 64.3319 236.707 64.6468C236.838 65.0263 238.022 65.1731 238.285 64.6468Z" fill="#505C3B"/>
<path d="M237.463 59.8532C237.463 59.8532 240.932 55.6502 240.733 55.4652C240.155 54.9284 237.463 58.6695 237.463 58.6695V59.8532Z" fill="#505C3B"/>
<path d="M237.154 58.1036C237.154 58.1036 233.438 54.284 233.566 54.0077C233.744 53.6254 237.205 57.1378 237.205 57.1378L237.154 58.1036Z" fill="#505C3B"/>
<path d="M341.353 49.0426C341.353 50.9499 339.084 53.4768 337.176 53.4768C335.269 53.4768 333 50.9499 333 49.0426C333 47.1354 335.696 45 337.603 45C339.511 45.0001 341.353 47.1355 341.353 49.0426Z" fill="#505C3B"/>
<path d="M344 53.0851C344 54.0952 343.181 54.9141 342.171 54.9141C341.161 54.9141 340.342 55.1052 340.342 54.0951C340.342 53.0851 341.161 51.256 342.171 51.256C343.181 51.2562 344 52.0752 344 53.0851Z" fill="#505C3B"/>
<path d="M336.955 63.8703C336.955 63.8703 336.708 48.6944 337.259 48.4073C337.837 48.1056 338.389 63.3529 338.297 63.7774C338.194 64.2539 337.338 64.534 336.955 63.8703Z" fill="#505C3B"/>
<path d="M336.907 56.5734C336.907 56.5734 341.841 52.8865 342.155 53.0936C342.484 53.3112 337.647 57.1667 337.47 57.2207C337.271 57.2815 336.839 56.9201 336.907 56.5734Z" fill="#505C3B"/>
<path d="M261.369 44.8918C261.369 47.3193 264.257 50.5353 266.685 50.5353C269.112 50.5353 272 47.3193 272 44.8918C272 42.4645 268.569 39.7467 266.141 39.7467C263.714 39.7469 261.369 42.4647 261.369 44.8918Z" fill="#505C3B"/>
<path d="M258 50.0367C258 51.3224 259.042 52.3646 260.328 52.3646C261.613 52.3646 262.655 52.6079 262.655 51.3222C262.655 50.0367 261.613 47.7089 260.328 47.7089C259.042 47.7091 258 48.7514 258 50.0367Z" fill="#505C3B"/>
<path d="M266.966 63.7634C266.966 63.7634 267.281 44.4486 266.58 44.0833C265.844 43.6993 265.142 63.1048 265.258 63.6451C265.389 64.2515 266.479 64.608 266.966 63.7634Z" fill="#505C3B"/>
<path d="M267.028 54.4764C267.028 54.4764 260.748 49.784 260.348 50.0476C259.929 50.3246 266.085 55.2315 266.311 55.3002C266.564 55.3776 267.114 54.9177 267.028 54.4764Z" fill="#505C3B"/>
<path d="M187.995 53.0464C187.995 54.4837 189.705 56.3879 191.142 56.3879C192.579 56.3879 194.289 54.4837 194.289 53.0464C194.289 51.6092 192.258 50 190.82 50C189.383 50.0001 187.995 51.6093 187.995 53.0464Z" fill="#505C3B"/>
<path d="M186 56.0927C186 56.8539 186.617 57.471 187.378 57.471C188.139 57.471 188.756 57.615 188.756 56.8538C188.756 56.0927 188.139 54.7144 187.378 54.7144C186.617 54.7145 186 55.3316 186 56.0927Z" fill="#505C3B"/>
<path d="M191.309 64.2202C191.309 64.2202 191.495 52.784 191.08 52.5677C190.645 52.3403 190.229 63.8303 190.298 64.1502C190.375 64.5092 191.02 64.7203 191.309 64.2202Z" fill="#505C3B"/>
<path d="M191.345 58.7214C191.345 58.7214 187.627 55.943 187.39 56.0991C187.142 56.2631 190.787 59.1685 190.921 59.2092C191.07 59.255 191.396 58.9827 191.345 58.7214Z" fill="#505C3B"/>
<path d="M53.3527 49.296C53.3527 51.2033 51.0835 53.7302 49.1763 53.7302C47.269 53.7302 45 51.2033 45 49.296C45 47.3888 47.696 45.2534 49.6033 45.2534C51.5105 45.2536 53.3527 47.389 53.3527 49.296Z" fill="#505C3B"/>
<path d="M56 53.3384C56 54.3485 55.1812 55.1674 54.1712 55.1674C53.161 55.1674 52.3423 55.3585 52.3423 54.3484C52.3423 53.3384 53.1611 51.5094 54.1712 51.5094C55.1812 51.5095 56 52.3285 56 53.3384Z" fill="#505C3B"/>
<path d="M48.955 64.1236C48.955 64.1236 48.7078 48.9478 49.2583 48.6607C49.8365 48.359 50.3883 63.6062 50.2969 64.0307C50.1941 64.5071 49.338 64.7872 48.955 64.1236Z" fill="#505C3B"/>
<path d="M48.9068 56.8267C48.9068 56.8267 53.8412 53.1398 54.1549 53.347C54.4844 53.5646 49.6473 57.42 49.4701 57.474C49.2714 57.5348 48.8389 57.1734 48.9068 56.8267Z" fill="#505C3B"/>
<path d="M321.583 42.1078C321.583 42.1078 315.08 58.9384 317.566 59.4166C320.053 59.8947 327.129 60.2773 326.364 57.1215C325.599 53.9658 323.4 40.6735 321.583 42.1078Z" fill="#505C3B"/>
<path d="M320.555 63.923L321.711 49.3996C321.711 49.3996 322.625 63.5366 322.491 63.923C322.331 64.3885 320.878 64.5686 320.555 63.923Z" fill="#505C3B"/>
<path d="M321.564 58.0419L319.461 54.9221L321.564 56.5896V58.0419Z" fill="#505C3B"/>
<path d="M321.822 54.9221L323.28 52.7107L321.822 53.6193V54.9221Z" fill="#505C3B"/>
<path d="M121.042 35.028C121.042 35.028 112.469 57.2177 115.747 57.8482C119.025 58.4785 128.354 58.9829 127.346 54.8223C126.337 50.6618 123.438 33.137 121.042 35.028Z" fill="#505C3B"/>
<path d="M119.687 63.7895L121.211 44.6416C121.211 44.6416 122.416 63.28 122.24 63.7895C122.028 64.4032 120.112 64.6406 119.687 63.7895Z" fill="#505C3B"/>
<path d="M121.017 56.0357L118.245 51.9226L121.017 54.121V56.0357Z" fill="#505C3B"/>
<path d="M121.357 51.9226L123.28 49.007L121.357 50.2049V51.9226Z" fill="#505C3B"/>
</g>
<defs>
<clipPath id="clip0_389_79">
<rect width="400" height="64" fill="white"/>
</clipPath>
</defs>
</svg>
